<svg xmlns="http://www.w3.org/2000/svg" xmlns:xlink="http://www.w3.org/1999/xlink" version="1.1" width="1000" height="1000" viewBox="0 0 1000 1000" xml:space="preserve">
<desc>Created with Fabric.js 3.5.0</desc>
<defs>
</defs>
<rect x="0" y="0" width="100%" height="100%" fill="#ffffff"/>
<g transform="matrix(3.8922 0 0 3.8922 504.6191 504.6191)" id="Layer_1">
<path style="stroke: none; stroke-width: 1; stroke-dasharray: none; stroke-linecap: butt; stroke-dashoffset: 0; stroke-linejoin: miter; stroke-miterlimit: 4; is-custom-font: none; font-file-url: none; fill: rgb(255,255,255); fill-rule: nonzero; opacity: 1;" transform=" translate(-129, -129)" d="M 1 150 C 1 136.312439 1 122.624878 1.357908 108.769104 C 2.138234 107.936142 2.869018 107.30146 2.937216 106.602158 C 4.123569 94.437187 8.04517 82.934776 13.509269 72.283249 C 24.327206 51.195129 39.321049 33.477531 59.707272 20.790951 C 74.011078 11.88953 89.152847 5.179176 106.033569 2.924347 C 106.761734 2.827083 107.347755 1.665686 108 0.999999 C 121.687561 1 135.375122 1 149.230881 1.358137 C 153.120102 2.553203 156.887009 3.226412 160.554428 4.25453 C 179.53447 9.575349 196.887756 17.990442 211.942749 30.959084 C 233.652237 49.660069 248.066513 72.661469 254.097443 100.808701 C 254.4944 102.661377 256.006561 104.275124 257 106 C 257 121.020897 257 136.041794 256.654022 151.233551 C 255.386871 154.593262 254.411728 157.767639 253.55336 160.973297 C 248.48114 179.915878 239.816803 196.981201 227.018372 211.893814 C 208.372498 233.619843 185.392853 248.140915 157.191147 254.098236 C 155.339081 254.489456 153.724854 256.006561 152 257 C 136.645767 257 121.291542 257 105.764992 256.660797 C 103.872536 255.550018 102.221764 254.386581 100.421463 254.067902 C 83.642288 251.097778 68.636505 243.762558 54.930538 234.169388 C 41.118668 224.50209 29.422592 212.394989 20.46398 197.930389 C 11.679833 183.747482 5.19375 168.664459 2.924558 151.967606 C 2.825403 151.238022 1.665688 150.652588 1 150 M 159.608032 147.545135 C 159.51564 147.968018 159.423233 148.390915 159.015976 149.413345 C 158.582825 150.943481 158.149658 152.473618 157.230194 154.457199 C 156.144913 156.532028 155.059631 158.606857 153.193512 160.834213 C 146.808487 163.023956 139.613174 163.369324 134.992569 169.52269 C 134.10939 170.698837 131.71283 170.738571 129.24173 171.125824 C 126.829742 170.406662 124.417747 169.6875 121.481674 168.571152 C 120.348366 167.047745 119.215057 165.524353 118.119125 163.386063 C 117.746773 163.283707 117.37442 163.181351 116.354576 162.852631 C 115.9049 162.901901 115.455223 162.951172 114.24984 162.772095 C 110.884186 161.450287 107.518532 160.128479 103.959579 158.145599 C 102.631142 155.766998 101.302704 153.388397 99.991081 150.171005 C 99.824478 149.186447 99.750839 148.174789 99.473236 147.222595 C 98.742584 144.716415 97.923248 142.236115 97.139244 139.745499 C 95.395195 142.149094 93.651154 144.552689 91.342552 147.285263 C 90.548347 148.841522 89.754135 150.397781 88.463585 152.235245 C 88.253227 152.754349 88.04287 153.273438 87.296539 154.222809 C 83.292465 161.216629 79.288391 168.210449 74.858543 175.947968 C 79.866821 175.947968 83.940361 175.947968 88.86869 176.029541 C 90.586617 175.999954 92.304543 175.970367 94.704956 176.045517 C 95.157135 175.992508 95.609322 175.939514 96.964561 176.041016 C 100.642891 176.001724 104.32122 175.962448 108.90255 176.094711 C 112.2659 176.03891 115.629257 175.983109 119.894905 176.11087 C 123.268738 176.048691 126.64257 175.986511 130.898453 176.083862 C 134.548004 175.786011 138.197556 175.488159 142.299606 175.91156 C 145.19072 175.912491 148.081833 175.913422 151.836746 176.094666 C 153.889496 176.035263 155.94223 175.975876 158.919449 176.080872 C 164.613785 176.028198 170.308136 175.975525 176.751282 176.048721 C 179.81752 173.487762 181.072281 170.726669 178.221436 167.090118 C 176.727753 165.184769 175.637939 162.962814 174.132767 160.402176 C 173.822418 160.243744 173.512054 160.085312 173.159134 159.207306 C 172.166534 157.375351 171.173935 155.543396 170.084106 153.081482 C 169.206329 151.678543 168.328568 150.27562 167.232773 148.175797 C 165.314133 144.849899 163.395493 141.524002 161.416031 138.092667 C 160.685562 138.727249 160.254944 138.922318 160.244583 139.137604 C 160.118591 141.757095 160.054398 144.379578 159.608032 147.545135 M 122.783165 105.926048 C 123.330162 110.269905 125.715027 111.9841 130.826843 111.125877 C 133.139481 111.493385 134.90036 111.278534 135.463562 108.353676 C 135.885651 106.161736 136.974136 104.098114 138.000076 101.330582 C 137.385162 99.149025 136.770233 96.967468 136.023178 94.110695 C 134.618713 91.747086 133.214249 89.383484 131.658035 86.396103 C 131.121063 86.028557 130.527374 85.281464 130.055847 85.351929 C 125.092049 86.093697 119.268005 97.287331 121.358856 102.567673 C 121.77301 103.432526 122.187164 104.297371 122.783165 105.926048 M 102.672256 139.517441 C 103.028954 142.064117 103.60804 144.602676 103.701149 147.158951 C 103.994492 155.212051 108.538773 158.338593 115.739113 159.118378 C 118.139549 159.378326 121.141602 160.763992 122.514687 162.630875 C 127.496353 169.404099 130.418503 169.59375 136.702515 164.033936 C 139.780807 161.310379 144.326401 160.314774 147.75293 157.893326 C 150.519348 155.938354 153.35524 153.378616 154.773438 150.421951 C 156.118317 147.618103 155.658249 143.949509 155.997009 140.661713 C 156.265915 138.051865 155.816696 135.254852 159.658112 134.394287 C 160.631042 134.176315 161.032639 131.408066 161.696762 129.811691 C 161.21312 129.597824 160.729477 129.383972 160.245834 129.170105 C 159.012558 130.230621 157.779282 131.291122 155.929031 132.882187 C 156.875137 117.573799 153.106857 104.144539 147.302399 90.880096 C 144.408386 96.806648 141.79068 102.719788 140.113937 108.888702 C 138.706329 114.067429 134.884262 117.066429 129.783127 115.72364 C 128.840942 115.475632 127.689034 115.237114 126.842308 115.552933 C 123.549561 116.78109 122.033051 115.518211 120.917656 112.386932 C 118.386513 105.281174 115.537071 98.288795 112.817032 91.250313 C 112.255005 91.247421 111.692978 91.24453 111.130951 91.241638 C 104.969238 105.068985 103.842964 120.126663 101.397484 135.204865 C 100.193115 133.496521 99.073463 131.90834 97.767792 130.056305 C 95.939102 135.405167 100.101349 136.616013 102.672256 139.517441 z" stroke-linecap="round"/>
</g>
<g transform="matrix(3.8922 0 0 3.8922 506.5923 506.2863)" id="Layer_1">
<path style="stroke: none; stroke-width: 1; stroke-dasharray: none; stroke-linecap: butt; stroke-dashoffset: 0; stroke-linejoin: miter; stroke-miterlimit: 4; is-custom-font: none; font-file-url: none; fill: rgb(235,227,230); fill-rule: nonzero; opacity: 1;" transform=" translate(-129.507, -129.4284)" d="M 102.661461 139.166687 C 100.101349 136.616013 95.939102 135.405167 97.767792 130.056305 C 99.073463 131.90834 100.193115 133.496521 101.397484 135.204865 C 103.842964 120.126663 104.969238 105.068985 111.130951 91.241638 C 111.692978 91.24453 112.255005 91.247421 112.817032 91.250313 C 115.537071 98.288795 118.386513 105.281174 120.917656 112.386932 C 122.033051 115.518211 123.549561 116.78109 126.842308 115.552933 C 127.689034 115.237114 128.840942 115.475632 129.783127 115.72364 C 134.884262 117.066429 138.706329 114.067429 140.113937 108.888702 C 141.79068 102.719788 144.408386 96.806648 147.302399 90.880096 C 153.106857 104.144539 156.875137 117.573799 155.929031 132.882187 C 157.779282 131.291122 159.012558 130.230621 160.245834 129.170105 C 160.729477 129.383972 161.21312 129.597824 161.696762 129.811691 C 161.032639 131.408066 160.631042 134.176315 159.658112 134.394287 C 155.816696 135.254852 156.265915 138.051865 155.997009 140.661713 C 155.658249 143.949509 156.118317 147.618103 154.773438 150.421951 C 153.35524 153.378616 150.519348 155.938354 147.75293 157.893326 C 144.326401 160.314774 139.780807 161.310379 136.702515 164.033936 C 130.418503 169.59375 127.496353 169.404099 122.514687 162.630875 C 121.141602 160.763992 118.139549 159.378326 115.739113 159.118378 C 108.538773 158.338593 103.994492 155.212051 103.701149 147.158951 C 103.60804 144.602676 103.028954 142.064117 102.661461 139.166687 M 140.239044 144.763733 C 139.745499 145.229568 139.251968 145.695404 138.288635 146.595642 C 136.904099 148.940277 135.519577 151.284927 133.350479 154.958221 C 136.987488 153.442749 139.214142 151.998734 141.605392 151.634171 C 145.637573 151.019424 148.092667 148.737305 150.63327 145.035461 C 151.166763 143.278473 151.700272 141.521484 152.233765 139.764481 C 151.962723 139.627426 151.691696 139.490356 151.420654 139.353302 C 150.802246 139.999771 150.183823 140.646225 149.316025 141.41037 C 149.316025 141.41037 149.279861 141.683746 148.436844 141.65596 C 145.92247 142.722153 143.408112 143.788361 140.883667 144.954697 C 140.883667 144.954697 140.927338 144.864304 140.239044 144.763733 M 106.870895 139.939178 C 106.870895 139.939178 106.808525 139.871994 106.808525 139.871994 C 106.808525 139.871994 106.993912 140.027954 106.992584 140.793137 C 107.868202 151.209808 117.979744 150.284531 123.896721 154.636475 C 122.922493 149.70369 120.929604 145.534912 116.123611 143.466629 C 113.133217 142.179733 110.012108 141.196609 106.870895 139.939178 M 110.689491 125.743797 C 113.414345 123.547897 116.139206 121.351997 118.836723 118.379288 C 116.840355 112.76194 114.843987 107.1446 112.847618 101.527252 C 112.300247 101.655861 111.752884 101.784462 111.205521 101.913063 C 107.172348 110.025955 106.313339 118.554924 108.52121 127.804466 C 109.105507 127.144394 109.591782 126.595055 110.689491 125.743797 M 140.198273 119.688934 C 143.157593 121.750237 146.116913 123.811539 149.829269 125.599472 C 150.310486 124.761459 151.182037 123.937149 151.212036 123.083282 C 151.488785 115.205086 150.791046 107.469292 147.622467 100.182182 C 147.032974 100.059326 146.443481 99.936462 145.853973 99.813606 C 143.913528 106.219826 141.973083 112.626045 140.198273 119.688934 z" stroke-linecap="round"/>
</g>
<g transform="matrix(3.8922 0 0 3.8922 328.2367 645.277)" id="Layer_1">
<path style="stroke: none; stroke-width: 1; stroke-dasharray: none; stroke-linecap: butt; stroke-dashoffset: 0; stroke-linejoin: miter; stroke-miterlimit: 4; is-custom-font: none; font-file-url: none; fill: rgb(145,214,247); fill-rule: nonzero; opacity: 1;" transform=" translate(-83.6831, -165.1384)" d="M 88.013908 175.947968 C 83.940361 175.947968 79.866821 175.947968 74.858543 175.947968 C 79.288391 168.210449 83.292465 161.216629 87.736145 154.328796 C 89.709724 157.018448 92.495178 159.596451 92.506943 162.187027 C 92.528801 167.000504 92.136208 172.237854 88.013908 175.947968 z" stroke-linecap="round"/>
</g>
<g transform="matrix(3.8922 0 0 3.8922 618.1209 644.8346)" id="Layer_1">
<path style="stroke: none; stroke-width: 1; stroke-dasharray: none; stroke-linecap: butt; stroke-dashoffset: 0; stroke-linejoin: miter; stroke-miterlimit: 4; is-custom-font: none; font-file-url: none; fill: rgb(11,121,195); fill-rule: nonzero; opacity: 1;" transform=" translate(-158.1613, -165.0247)" d="M 142.073364 175.550934 C 148.027451 172.491394 150.794617 166.83049 153.897156 161.037674 C 155.059631 158.606857 156.144913 156.532028 157.882034 154.230179 C 160.011185 154.510452 162.328613 154.600983 162.822327 155.596237 C 165.124313 160.236664 168.989777 160.319809 173.201691 159.926895 C 173.512054 160.085312 173.822418 160.243744 174.249268 160.643005 C 171.146759 161.169037 167.845673 162.047714 164.72583 161.616119 C 158.197403 160.712982 154.494843 162.616516 152.549744 168.951965 C 151.927124 170.979904 151.513641 173.072052 150.988708 175.524597 C 148.081833 175.913422 145.19072 175.912491 142.073364 175.550934 z" stroke-linecap="round"/>
</g>
<g transform="matrix(3.8922 0 0 3.8922 449.7091 662.293)" id="Layer_1">
<path style="stroke: none; stroke-width: 1; stroke-dasharray: none; stroke-linecap: butt; stroke-dashoffset: 0; stroke-linejoin: miter; stroke-miterlimit: 4; is-custom-font: none; font-file-url: none; fill: rgb(1,54,124); fill-rule: nonzero; opacity: 1;" transform=" translate(-114.8923, -169.5102)" d="M 108.45105 176.008942 C 106.545494 169.723083 111.773247 167.289886 114.955048 163.337616 C 115.455223 162.951172 115.9049 162.901901 116.803093 163.177612 C 117.470261 163.765411 117.746971 163.931534 118.081749 164.000946 C 119.215057 165.524353 120.348366 167.047745 121.740547 169.135101 C 120.997154 171.775131 119.994881 173.851212 118.992607 175.927292 C 115.629257 175.983109 112.2659 176.03891 108.45105 176.008942 z" stroke-linecap="round"/>
</g>
<g transform="matrix(3.8922 0 0 3.8922 505.9182 384.8335)" id="Layer_1">
<path style="stroke: none; stroke-width: 1; stroke-dasharray: none; stroke-linecap: butt; stroke-dashoffset: 0; stroke-linejoin: miter; stroke-miterlimit: 4; is-custom-font: none; font-file-url: none; fill: rgb(70,175,238); fill-rule: nonzero; opacity: 1;" transform=" translate(-129.3337, -98.2242)" d="M 121.32679 101.984253 C 119.268005 97.287331 125.092049 86.093697 130.055847 85.351929 C 130.527374 85.281464 131.121063 86.028557 131.432739 86.746895 C 130.49321 87.747566 129.778961 88.397446 128.737854 89.198563 C 127.115219 91.306549 125.66111 93.183876 124.616341 95.266548 C 124.286049 95.92495 124.811317 97.787361 125.351234 97.984108 C 129.432556 99.471382 133.615021 100.681053 137.76593 101.977364 C 136.974136 104.098114 135.885651 106.161736 135.463562 108.353676 C 134.90036 111.278534 133.139481 111.493385 130.412903 110.713913 C 130.3311 109.533928 130.663239 108.765907 131.338196 107.946167 C 131.627258 106.60672 132.063461 104.965973 131.434341 104.092766 C 128.805695 100.444344 125.096985 100.811501 121.32679 101.984253 z" stroke-linecap="round"/>
</g>
<g transform="matrix(3.8922 0 0 3.8922 361.6532 641.0117)" id="Layer_1">
<path style="stroke: none; stroke-width: 1; stroke-dasharray: none; stroke-linecap: butt; stroke-dashoffset: 0; stroke-linejoin: miter; stroke-miterlimit: 4; is-custom-font: none; font-file-url: none; fill: rgb(126,205,245); fill-rule: nonzero; opacity: 1;" transform=" translate(-92.2686, -164.0426)" d="M 88.711754 152.094635 C 95.568703 154.360168 98.465767 158.169434 95.175941 165.454361 C 93.903793 168.271408 94.344795 171.862076 94.013893 175.520538 C 92.304543 175.970367 90.586617 175.999954 88.441299 175.988754 C 92.136208 172.237854 92.528801 167.000504 92.506943 162.187027 C 92.495178 159.596451 89.709724 157.018448 88.004135 154.113663 C 88.04287 153.273438 88.253227 152.754349 88.711754 152.094635 z" stroke-linecap="round"/>
</g>
<g transform="matrix(3.8922 0 0 3.8922 647.2792 604.0299)" id="Layer_1">
<path style="stroke: none; stroke-width: 1; stroke-dasharray: none; stroke-linecap: butt; stroke-dashoffset: 0; stroke-linejoin: miter; stroke-miterlimit: 4; is-custom-font: none; font-file-url: none; fill: rgb(6,118,194); fill-rule: nonzero; opacity: 1;" transform=" translate(-165.6528, -154.541)" d="M 173.18042 159.567108 C 168.989777 160.319809 165.124313 160.236664 162.822327 155.596237 C 162.328613 154.600983 160.011185 154.510452 158.125183 154.003448 C 158.149658 152.473618 158.582825 150.943481 159.596771 149.160858 C 161.477798 149.874451 163.020233 150.639786 164.024353 151.851288 C 165.751053 153.93454 167.155899 156.251923 170.181335 153.711441 C 171.173935 155.543396 172.166534 157.375351 173.18042 159.567108 z" stroke-linecap="round"/>
</g>
<g transform="matrix(3.8922 0 0 3.8922 376.5348 568.1287)" id="Layer_1">
<path style="stroke: none; stroke-width: 1; stroke-dasharray: none; stroke-linecap: butt; stroke-dashoffset: 0; stroke-linejoin: miter; stroke-miterlimit: 4; is-custom-font: none; font-file-url: none; fill: rgb(74,179,241); fill-rule: nonzero; opacity: 1;" transform=" translate(-96.092, -145.3172)" d="M 99.982674 150.590393 C 96.681145 151.429047 94.014534 150.566299 92.201385 147.15564 C 93.651154 144.552689 95.395195 142.149094 97.139244 139.745499 C 97.923248 142.236115 98.742584 144.716415 99.473236 147.222595 C 99.750839 148.174789 99.824478 149.186447 99.982674 150.590393 z" stroke-linecap="round"/>
</g>
<g transform="matrix(3.8922 0 0 3.8922 497.0319 421.786)" id="Layer_1">
<path style="stroke: none; stroke-width: 1; stroke-dasharray: none; stroke-linecap: butt; stroke-dashoffset: 0; stroke-linejoin: miter; stroke-miterlimit: 4; is-custom-font: none; font-file-url: none; fill: rgb(92,188,243); fill-rule: nonzero; opacity: 1;" transform=" translate(-127.0507, -107.7182)" d="M 130.995361 107.997879 C 130.663239 108.765907 130.3311 109.533928 130.001755 110.637512 C 125.715027 111.9841 123.330162 110.269905 123.106049 105.494598 C 126.599335 104.370033 130.118362 102.778084 130.995361 107.997879 z" stroke-linecap="round"/>
</g>
<g transform="matrix(3.8922 0 0 3.8922 638.7376 560.3282)" id="Layer_1">
<path style="stroke: none; stroke-width: 1; stroke-dasharray: none; stroke-linecap: butt; stroke-dashoffset: 0; stroke-linejoin: miter; stroke-miterlimit: 4; is-custom-font: none; font-file-url: none; fill: rgb(12,95,163); fill-rule: nonzero; opacity: 1;" transform=" translate(-163.4582, -143.313)" d="M 159.974167 147.001282 C 160.054398 144.379578 160.118591 141.757095 160.244583 139.137604 C 160.254944 138.922318 160.685562 138.727249 161.416031 138.092667 C 163.395493 141.524002 165.314133 144.849899 166.942322 148.533279 C 164.425964 148.260941 162.200058 147.631119 159.974167 147.001282 z" stroke-linecap="round"/>
</g>
<g transform="matrix(3.8922 0 0 3.8922 644.1067 590.2496)" id="Layer_1">
<path style="stroke: none; stroke-width: 1; stroke-dasharray: none; stroke-linecap: butt; stroke-dashoffset: 0; stroke-linejoin: miter; stroke-miterlimit: 4; is-custom-font: none; font-file-url: none; fill: rgb(4,105,178); fill-rule: nonzero; opacity: 1;" transform=" translate(-164.8377, -151.0006)" d="M 159.791107 147.273224 C 162.200058 147.631119 164.425964 148.260941 167.051331 148.881714 C 168.328568 150.27562 169.206329 151.678543 170.132721 153.396454 C 167.155899 156.251923 165.751053 153.93454 164.024353 151.851288 C 163.020233 150.639786 161.477798 149.874451 159.754211 148.861084 C 159.423233 148.390915 159.51564 147.968018 159.791107 147.273224 z" stroke-linecap="round"/>
</g>
<g transform="matrix(3.8922 0 0 3.8922 460.3009 638.9995)" id="Layer_1">
<path style="stroke: none; stroke-width: 1; stroke-dasharray: none; stroke-linecap: butt; stroke-dashoffset: 0; stroke-linejoin: miter; stroke-miterlimit: 4; is-custom-font: none; font-file-url: none; fill: rgb(2,71,144); fill-rule: nonzero; opacity: 1;" transform=" translate(-117.6136, -163.5256)" d="M 118.100433 163.693512 C 117.746971 163.931534 117.470261 163.765411 117.126839 163.290787 C 117.37442 163.181351 117.746773 163.283707 118.100433 163.693512 z" stroke-linecap="round"/>
</g>
<g transform="matrix(3.8922 0 0 3.8922 569.4243 440.6554)" id="Layer_1">
<path style="stroke: none; stroke-width: 1; stroke-dasharray: none; stroke-linecap: butt; stroke-dashoffset: 0; stroke-linejoin: miter; stroke-miterlimit: 4; is-custom-font: none; font-file-url: none; fill: rgb(193,56,15); fill-rule: nonzero; opacity: 1;" transform=" translate(-145.65, -112.5662)" d="M 140.032654 119.032272 C 141.973083 112.626045 143.913528 106.219826 145.853973 99.813606 C 146.443481 99.936462 147.032974 100.059326 147.622467 100.182182 C 150.791046 107.469292 151.488785 115.205086 151.212036 123.083282 C 151.182037 123.937149 150.310486 124.761459 149.444885 125.318756 C 148.36792 121.393791 147.675339 117.749527 146.909119 113.717773 C 143.928574 116.021301 141.980621 117.526787 140.032654 119.032272 z" stroke-linecap="round"/>
</g>
<g transform="matrix(3.8922 0 0 3.8922 442.1718 448.828)" id="Layer_1">
<path style="stroke: none; stroke-width: 1; stroke-dasharray: none; stroke-linecap: butt; stroke-dashoffset: 0; stroke-linejoin: miter; stroke-miterlimit: 4; is-custom-font: none; font-file-url: none; fill: rgb(188,59,19); fill-rule: nonzero; opacity: 1;" transform=" translate(-112.9558, -114.6659)" d="M 110.078049 126.045715 C 109.591782 126.595055 109.105507 127.144394 108.52121 127.804466 C 106.313339 118.554924 107.172348 110.025955 111.205521 101.913063 C 111.752884 101.784462 112.300247 101.655861 112.847618 101.527252 C 114.843987 107.1446 116.840355 112.76194 118.577438 118.816917 C 116.481331 117.659035 114.644524 116.063515 111.61702 113.433723 C 111.034103 118.210732 110.556076 122.128227 110.078049 126.045715 z" stroke-linecap="round"/>
</g>
<g transform="matrix(3.8922 0 0 3.8922 451.7756 576.0661)" id="Layer_1">
<path style="stroke: none; stroke-width: 1; stroke-dasharray: none; stroke-linecap: butt; stroke-dashoffset: 0; stroke-linejoin: miter; stroke-miterlimit: 4; is-custom-font: none; font-file-url: none; fill: rgb(97,56,45); fill-rule: nonzero; opacity: 1;" transform=" translate(-115.4232, -147.3564)" d="M 106.949661 140.077148 C 110.012108 141.196609 113.133217 142.179733 116.123611 143.466629 C 120.929604 145.534912 122.922493 149.70369 123.896721 154.636475 C 117.979744 150.284531 107.868202 151.209808 106.979233 140.418304 C 106.965874 140.043472 106.949661 140.077148 106.949661 140.077148 z" stroke-linecap="round"/>
</g>
<g transform="matrix(3.8922 0 0 3.8922 553.9991 579.6616)" id="Layer_1">
<path style="stroke: none; stroke-width: 1; stroke-dasharray: none; stroke-linecap: butt; stroke-dashoffset: 0; stroke-linejoin: miter; stroke-miterlimit: 4; is-custom-font: none; font-file-url: none; fill: rgb(71,52,48); fill-rule: nonzero; opacity: 1;" transform=" translate(-141.6869, -148.2802)" d="M 150.023331 145.495193 C 148.092667 148.737305 145.637573 151.019424 141.605392 151.634171 C 139.214142 151.998734 136.987488 153.442749 133.350479 154.958221 C 135.519577 151.284927 136.904099 148.940277 138.874649 146.361267 C 139.949554 145.706024 140.438446 145.285156 140.927338 144.864304 C 140.927338 144.864304 140.883667 144.954697 141.283905 144.984985 C 144.216064 143.90477 146.747971 142.794266 149.279861 141.683746 C 149.279861 141.683746 149.316025 141.41037 149.568756 141.8647 C 149.888763 143.377747 149.956055 144.436478 150.023331 145.495193 z" stroke-linecap="round"/>
</g>
<g transform="matrix(3.8922 0 0 3.8922 565.306 467.9804)" id="Layer_1">
<path style="stroke: none; stroke-width: 1; stroke-dasharray: none; stroke-linecap: butt; stroke-dashoffset: 0; stroke-linejoin: miter; stroke-miterlimit: 4; is-custom-font: none; font-file-url: none; fill: rgb(221,156,94); fill-rule: nonzero; opacity: 1;" transform=" translate(-144.5919, -119.5866)" d="M 140.115463 119.360603 C 141.980621 117.526787 143.928574 116.021301 146.909119 113.717773 C 147.675339 117.749527 148.36792 121.393791 149.068359 125.455444 C 146.116913 123.811539 143.157593 121.750237 140.115463 119.360603 z" stroke-linecap="round"/>
</g>
<g transform="matrix(3.8922 0 0 3.8922 448.1334 468.2823)" id="Layer_1">
<path style="stroke: none; stroke-width: 1; stroke-dasharray: none; stroke-linecap: butt; stroke-dashoffset: 0; stroke-linejoin: miter; stroke-miterlimit: 4; is-custom-font: none; font-file-url: none; fill: rgb(221,156,94); fill-rule: nonzero; opacity: 1;" transform=" translate(-114.4874, -119.6642)" d="M 110.383774 125.89476 C 110.556076 122.128227 111.034103 118.210732 111.61702 113.433723 C 114.644524 116.063515 116.481331 117.659035 118.591103 119.205322 C 116.139206 121.351997 113.414345 123.547897 110.383774 125.89476 z" stroke-linecap="round"/>
</g>
<g transform="matrix(3.8922 0 0 3.8922 567.1811 560.2871)" id="Layer_1">
<path style="stroke: none; stroke-width: 1; stroke-dasharray: none; stroke-linecap: butt; stroke-dashoffset: 0; stroke-linejoin: miter; stroke-miterlimit: 4; is-custom-font: none; font-file-url: none; fill: rgb(198,80,48); fill-rule: nonzero; opacity: 1;" transform=" translate(-145.0737, -143.3024)" d="M 148.858353 141.669861 C 146.747971 142.794266 144.216064 143.90477 141.288956 144.934937 C 143.408112 143.788361 145.92247 142.722153 148.858353 141.669861 z" stroke-linecap="round"/>
</g>
<g transform="matrix(3.8922 0 0 3.8922 590.1057 556.4216)" id="Layer_1">
<path style="stroke: none; stroke-width: 1; stroke-dasharray: none; stroke-linecap: butt; stroke-dashoffset: 0; stroke-linejoin: miter; stroke-miterlimit: 4; is-custom-font: none; font-file-url: none; fill: rgb(198,80,48); fill-rule: nonzero; opacity: 1;" transform=" translate(-150.9636, -142.3093)" d="M 150.328308 145.26532 C 149.956055 144.436478 149.888763 143.377747 149.693436 141.805862 C 150.183823 140.646225 150.802246 139.999771 151.420654 139.353302 C 151.691696 139.490356 151.962723 139.627426 152.233765 139.764481 C 151.700272 141.521484 151.166763 143.278473 150.328308 145.26532 z" stroke-linecap="round"/>
</g>
<g transform="matrix(3.8922 0 0 3.8922 546.8355 568.7588)" id="Layer_1">
<path style="stroke: none; stroke-width: 1; stroke-dasharray: none; stroke-linecap: butt; stroke-dashoffset: 0; stroke-linejoin: miter; stroke-miterlimit: 4; is-custom-font: none; font-file-url: none; fill: rgb(198,80,48); fill-rule: nonzero; opacity: 1;" transform=" translate(-139.8464, -145.479)" d="M 140.583191 144.814026 C 140.438446 145.285156 139.949554 145.706024 139.109558 146.144073 C 139.251968 145.695404 139.745499 145.229568 140.583191 144.814026 z" stroke-linecap="round"/>
</g>
<g transform="matrix(3.8922 0 0 3.8922 418.5803 547.283)" id="Layer_1">
<path style="stroke: none; stroke-width: 1; stroke-dasharray: none; stroke-linecap: butt; stroke-dashoffset: 0; stroke-linejoin: miter; stroke-miterlimit: 4; is-custom-font: none; font-file-url: none; fill: rgb(97,56,45); fill-rule: nonzero; opacity: 1;" transform=" translate(-106.8946, -139.9614)" d="M 106.979889 140.035706 C 106.993912 140.027954 106.808525 139.871994 106.808525 139.871994 C 106.808525 139.871994 106.870895 139.939178 106.910278 140.008163 C 106.949661 140.077148 106.965874 140.043472 106.979889 140.035706 z" stroke-linecap="round"/>
</g>
<g transform="matrix(3.8922 0 0 3.8922 392.149 633.1747)" id="Layer_1">
<path style="stroke: none; stroke-width: 1; stroke-dasharray: none; stroke-linecap: butt; stroke-dashoffset: 0; stroke-linejoin: miter; stroke-miterlimit: 4; is-custom-font: none; font-file-url: none; fill: rgb(19,100,171); fill-rule: nonzero; opacity: 1;" transform=" translate(-100.1037, -162.029)" d="M 97.523613 165.014526 C 98.908745 163.051025 100.620232 161.035248 102.683807 159.043457 C 101.307259 161.032349 99.578613 162.997284 97.523613 165.014526 z" stroke-linecap="round"/>
</g>
<g transform="matrix(3.8922 0 0 3.8922 487.9872 674.6285)" id="Layer_1">
<path style="stroke: none; stroke-width: 1; stroke-dasharray: none; stroke-linecap: butt; stroke-dashoffset: 0; stroke-linejoin: miter; stroke-miterlimit: 4; is-custom-font: none; font-file-url: none; fill: rgb(8,75,146); fill-rule: nonzero; opacity: 1;" transform=" translate(-124.7268, -172.6795)" d="M 119.443756 176.019073 C 119.994881 173.851212 120.997154 171.775131 122.002586 169.333694 C 124.417747 169.6875 126.829742 170.406662 129.628098 171.214218 C 130.010757 172.586334 130.00705 173.870041 130.009872 175.539062 C 126.64257 175.986511 123.268738 176.048691 119.443756 176.019073 z" stroke-linecap="round"/>
</g>
<g transform="matrix(3.8922 0 0 3.8922 554.2846 657.9346)" id="Layer_1">
<path style="stroke: none; stroke-width: 1; stroke-dasharray: none; stroke-linecap: butt; stroke-dashoffset: 0; stroke-linejoin: miter; stroke-miterlimit: 4; is-custom-font: none; font-file-url: none; fill: rgb(4,54,119); fill-rule: nonzero; opacity: 1;" transform=" translate(-141.7603, -168.3905)" d="M 130.014465 171.302612 C 131.71283 170.738571 134.10939 170.698837 134.992569 169.52269 C 139.613174 163.369324 146.808487 163.023956 153.506744 161.113937 C 150.794617 166.83049 148.027451 172.491394 141.847107 175.190308 C 138.197556 175.488159 134.548004 175.786011 130.450897 175.618805 C 130.00705 173.870041 130.010757 172.586334 130.014465 171.302612 z" stroke-linecap="round"/>
</g>
<g transform="matrix(3.8922 0 0 3.8922 651.6285 669.0899)" id="Layer_1">
<path style="stroke: none; stroke-width: 1; stroke-dasharray: none; stroke-linecap: butt; stroke-dashoffset: 0; stroke-linejoin: miter; stroke-miterlimit: 4; is-custom-font: none; font-file-url: none; fill: rgb(44,157,232); fill-rule: nonzero; opacity: 1;" transform=" translate(-166.7703, -171.2565)" d="M 158.457214 175.998672 C 157.307007 172.628616 156.531967 168.864716 160.735901 167.746399 C 164.587936 166.721695 169.012115 165.985626 172.685165 166.975037 C 174.393997 167.435333 174.921021 172.283035 175.993118 175.53241 C 170.308136 175.975525 164.613785 176.028198 158.457214 175.998672 z" stroke-linecap="round"/>
</g>
<g transform="matrix(3.8922 0 0 3.8922 413.3357 653.9867)" id="Layer_1">
<path style="stroke: none; stroke-width: 1; stroke-dasharray: none; stroke-linecap: butt; stroke-dashoffset: 0; stroke-linejoin: miter; stroke-miterlimit: 4; is-custom-font: none; font-file-url: none; fill: rgb(2,71,144); fill-rule: nonzero; opacity: 1;" transform=" translate(-105.5471, -167.3761)" d="M 107.99955 175.923157 C 104.32122 175.962448 100.642891 176.001724 96.525192 175.558929 C 96.456306 171.740173 96.82679 168.403503 97.523621 165.014526 C 99.578613 162.997284 101.307259 161.032349 103.315628 159.004303 C 103.781197 158.896347 103.967033 158.851517 104.152878 158.806686 C 107.518532 160.128479 110.884186 161.450287 114.577194 163.22345 C 111.773247 167.289886 106.545494 169.723083 107.99955 175.923157 z" stroke-linecap="round"/>
</g>
<g transform="matrix(3.8922 0 0 3.8922 647.1092 658.0536)" id="Layer_1">
<path style="stroke: none; stroke-width: 1; stroke-dasharray: none; stroke-linecap: butt; stroke-dashoffset: 0; stroke-linejoin: miter; stroke-miterlimit: 4; is-custom-font: none; font-file-url: none; fill: rgb(37,149,223); fill-rule: nonzero; opacity: 1;" transform=" translate(-165.6091, -168.4211)" d="M 157.99498 175.916473 C 155.94223 175.975876 153.889496 176.035263 151.420609 175.614746 C 151.513641 173.072052 151.927124 170.979904 152.549744 168.951965 C 154.494843 162.616516 158.197403 160.712982 164.72583 161.616119 C 167.845673 162.047714 171.146759 161.169037 174.365753 160.883835 C 175.637939 162.962814 176.727753 165.184769 178.221436 167.090118 C 181.072281 170.726669 179.81752 173.487762 176.367523 175.595337 C 174.921021 172.283035 174.393997 167.435333 172.685165 166.975037 C 169.012115 165.985626 164.587936 166.721695 160.735901 167.746399 C 156.531967 168.864716 157.307007 172.628616 157.99498 175.916473 z" stroke-linecap="round"/>
</g>
<g transform="matrix(3.8922 0 0 3.8922 378.1539 631.4632)" id="Layer_1">
<path style="stroke: none; stroke-width: 1; stroke-dasharray: none; stroke-linecap: butt; stroke-dashoffset: 0; stroke-linejoin: miter; stroke-miterlimit: 4; is-custom-font: none; font-file-url: none; fill: rgb(84,176,234); fill-rule: nonzero; opacity: 1;" transform=" translate(-96.5081, -161.5893)" d="M 97.197266 165.066818 C 96.82679 168.403503 96.456306 171.740173 96.073662 175.481689 C 95.609322 175.939514 95.157135 175.992508 94.355133 175.572906 C 94.344795 171.862076 93.903793 168.271408 95.175941 165.454361 C 98.465767 158.169434 95.568703 154.360168 88.95993 151.954041 C 89.754135 150.397781 90.548347 148.841522 91.919113 147.320129 C 94.014534 150.566299 96.681145 151.429047 99.974266 151.009796 C 101.302704 153.388397 102.631142 155.766998 104.056229 158.476135 C 103.967033 158.851517 103.781197 158.896347 102.963531 158.980316 C 100.620232 161.035248 98.908745 163.051025 97.197266 165.066818 z" stroke-linecap="round"/>
</g>
</svg>